<?xml version="1.0" standalone="no"?>
<!DOCTYPE svg PUBLIC "-//W3C//DTD SVG 20010904//EN"
 "http://www.w3.org/TR/2001/REC-SVG-20010904/DTD/svg10.dtd">
<svg version="1.0" xmlns="http://www.w3.org/2000/svg"
 width="1024.000000pt" height="1024.000000pt" viewBox="0 0 1024.000000 1024.000000"
 preserveAspectRatio="xMidYMid meet">
<metadata>
Created by potrace 1.14, written by Peter Selinger 2001-2017
</metadata>
<g transform="translate(0.000000,1024.000000) scale(0.100000,-0.100000)"
fill="#000000" stroke="none">
<path d="M5085 9950 c-107 -10 -356 -48 -364 -56 -3 -3 37 -2 89 2 l95 6 -47
-30 c-46 -30 -98 -94 -98 -121 0 -8 28 13 63 46 63 61 139 103 220 124 69 17
408 24 506 9 137 -20 130 -31 -14 -24 -271 13 -451 -39 -597 -174 l-47 -44 12
32 c7 17 40 55 74 83 34 28 61 53 59 54 -9 10 -78 -23 -103 -49 -49 -51 -113
-170 -154 -283 l-18 -50 -1 45 c-1 32 -4 39 -9 25 -6 -15 -9 -11 -14 20 -4 22
-7 60 -7 85 l0 45 -23 -26 c-34 -40 -48 -17 -40 65 6 66 -2 82 -26 52 -8 -9
-25 -12 -56 -9 -24 3 -52 2 -62 -2 -15 -5 -12 -10 20 -26 42 -22 49 -38 12
-31 -42 8 -270 -72 -365 -128 -87 -51 -172 -118 -135 -105 112 37 286 58 299
36 5 -8 -8 -11 -41 -11 -62 0 -38 -19 27 -21 93 -2 97 -17 4 -18 -122 -1 -182
-14 -240 -51 l-48 -30 40 -1 c21 0 59 -4 84 -8 l45 -7 -75 -13 c-126 -21 -252
-60 -323 -102 -38 -21 -71 -39 -74 -39 -3 0 -45 -25 -95 -55 -49 -30 -93 -55
-97 -55 -32 0 -257 -261 -247 -286 3 -8 0 -13 -5 -11 -10 2 -118 -197 -118
-218 0 -5 9 8 21 30 11 22 24 42 28 45 4 3 33 46 65 95 31 50 66 100 77 112
11 12 18 26 14 31 -3 5 7 20 22 33 25 22 25 22 8 2 -23 -27 -11 -31 17 -5 11
9 -3 -15 -30 -55 -50 -73 -92 -164 -158 -348 -20 -55 -49 -134 -65 -175 -64
-169 -114 -370 -139 -560 -5 -41 -19 -131 -30 -199 -11 -69 -28 -202 -36 -295
-23 -243 -75 -515 -130 -681 -69 -210 -130 -354 -194 -459 -22 -37 -41 -70
-41 -72 0 -2 -25 -45 -56 -96 -67 -113 -171 -322 -218 -439 -18 -47 -48 -143
-66 -213 -39 -155 -45 -330 -16 -431 28 -96 86 -194 158 -271 43 -45 68 -80
68 -94 0 -27 -76 -157 -137 -233 -61 -78 -164 -153 -242 -177 -169 -53 -349 4
-406 129 -17 39 -17 43 -1 85 21 56 66 86 127 86 32 0 40 3 32 11 -7 7 -39 10
-86 8 -69 -4 -78 -7 -121 -42 -85 -70 -114 -170 -81 -283 25 -88 47 -119 168
-236 62 -62 103 -108 93 -108 -9 0 -16 -4 -16 -10 0 -5 -7 -10 -15 -10 -8 0
-15 -5 -15 -10 0 -6 -3 -9 -7 -9 -19 3 -33 -2 -47 -17 -14 -13 -16 -14 -16 0
0 8 4 26 10 40 5 14 7 26 5 26 -9 0 -142 -135 -168 -171 -21 -28 -24 -38 -14
-49 10 -10 8 -12 -7 -6 -13 5 -17 2 -12 -9 3 -8 0 -14 -5 -12 -16 3 -74 -105
-103 -194 -19 -56 -26 -99 -26 -154 l0 -75 -82 -53 c-162 -105 -237 -204 -246
-324 -5 -75 11 -128 51 -170 37 -39 54 -43 31 -8 -9 14 -18 53 -21 88 -5 57
-3 65 26 104 33 46 89 80 136 83 64 4 112 -1 130 -14 19 -13 18 -17 -22 -102
-65 -138 -77 -191 -78 -334 0 -139 8 -174 61 -258 19 -29 34 -61 34 -71 0 -30
-57 -78 -107 -91 -57 -14 -94 -6 -124 26 -20 22 -24 36 -24 90 0 54 -1 60 -11
41 -6 -12 -17 -45 -24 -72 -27 -109 45 -232 175 -296 99 -48 206 -55 322 -20
30 9 32 8 38 -19 3 -16 29 -62 57 -102 132 -189 468 -451 790 -618 666 -344
1436 -506 2323 -487 465 10 853 64 1364 188 960 235 1917 758 2430 1329 375
418 397 802 65 1158 -42 46 -136 128 -208 182 -72 55 -144 109 -159 122 l-28
23 113 0 c122 1 211 21 313 72 72 37 173 144 215 228 32 65 35 77 35 165 0 88
-2 100 -32 155 -61 117 -154 178 -273 178 -42 1 -75 -5 -95 -16 l-30 -16 58
-1 c135 -1 237 -90 237 -208 0 -84 -59 -147 -169 -179 -57 -16 -175 -13 -194
6 -5 5 6 18 28 31 56 35 135 152 135 201 0 4 -24 -8 -52 -28 -47 -31 -59 -35
-104 -31 -104 9 -237 104 -324 233 -76 110 -161 352 -196 548 -19 113 -20 187
-10 787 7 371 6 513 -4 605 -17 161 -17 165 -19 202 0 18 -4 32 -8 32 -21 -3
-33 2 -33 16 0 18 16 20 23 3 3 -9 7 -7 12 5 4 10 2 29 -5 42 -7 13 -10 33 -7
44 3 12 2 21 -2 21 -3 0 -6 25 -5 55 1 30 -2 55 -5 55 -3 0 -7 24 -8 53 -1 28
-11 106 -21 172 -17 108 -20 116 -26 80 -4 -22 -9 -44 -10 -50 -4 -12 -19 45
-41 150 -170 835 -402 1433 -720 1855 -170 226 -349 381 -675 585 -192 120
-288 162 -465 203 -144 33 -376 37 -497 9 -95 -23 -117 -18 -55 12 66 32 217
61 319 61 120 0 288 -37 408 -90 52 -23 100 -45 105 -50 6 -4 22 -10 38 -14
64 -15 256 -119 279 -151 4 -5 11 -10 16 -10 5 0 16 -8 26 -17 10 -10 21 -18
25 -18 4 0 17 -9 29 -20 12 -12 22 -18 22 -15 0 5 33 -21 81 -65 15 -14 42
-36 60 -50 46 -36 131 -112 149 -133 8 -10 29 -33 45 -51 61 -65 132 -159 215
-283 30 -45 56 -80 58 -78 3 2 -14 36 -37 75 -138 232 -400 498 -666 677 -271
182 -639 325 -945 367 -131 19 -406 27 -525 16z m490 -318 c91 -33 138 -60 80
-46 -16 4 -37 10 -45 14 -29 15 -142 40 -173 39 -30 -1 -30 -1 -7 -8 l25 -7
-25 -7 c-14 -4 -38 -7 -55 -8 -24 -1 -18 -4 25 -16 86 -23 249 -105 363 -182
102 -70 167 -131 217 -206 14 -20 47 -62 73 -92 66 -75 108 -139 275 -428 58
-101 109 -225 193 -470 37 -110 68 -191 68 -180 1 22 -56 252 -66 268 -3 6 -8
28 -10 51 -3 23 -20 79 -39 125 -40 99 -39 119 1 29 15 -35 36 -81 46 -104 71
-159 165 -597 153 -712 -4 -34 2 -128 15 -232 11 -96 27 -236 36 -310 9 -74
31 -229 50 -345 19 -115 41 -282 50 -370 9 -88 20 -191 25 -230 5 -38 9 -83 9
-100 -2 -44 -15 37 -44 275 -24 192 -121 790 -130 798 -9 10 -14 -56 -19 -263
-5 -198 -15 -322 -45 -554 -6 -42 -15 -119 -21 -172 -22 -188 -30 -163 -26 76
3 127 1 451 -4 720 -9 485 -18 625 -54 815 -8 41 -18 97 -21 124 -4 27 -10 44
-14 38 -4 -6 -8 7 -8 30 -1 22 -9 48 -18 58 -8 9 -20 44 -26 76 -21 108 -100
326 -185 509 -7 17 -21 50 -29 75 -17 48 -131 249 -166 290 -20 25 -20 25 -9
1 19 -38 -5 -15 -43 41 -44 65 -214 234 -283 280 -28 19 -85 46 -125 59 -63
20 -94 24 -204 24 -118 0 -134 -2 -175 -24 -30 -16 -41 -19 -32 -8 8 9 39 26
70 38 77 28 231 30 317 4 33 -10 69 -19 80 -20 11 -1 38 -11 60 -23 74 -41 59
-22 -35 43 -52 36 -130 79 -175 97 -68 27 -96 32 -190 36 -122 4 -184 -7 -215
-40 -11 -12 -19 -23 -17 -24 1 -1 23 1 49 5 58 9 54 0 -9 -24 -26 -10 -66 -30
-88 -44 -65 -43 -71 -46 -45 -16 l25 27 -25 -7 c-24 -7 -34 -14 -89 -63 -14
-12 -26 -20 -29 -18 -5 6 25 63 55 106 25 34 24 34 -14 -5 -21 -22 -46 -51
-55 -65 -26 -37 -10 5 19 53 13 20 18 37 13 37 -6 0 -8 5 -5 10 4 6 10 8 14 5
5 -2 17 5 27 18 l19 22 -22 -19 c-13 -11 -23 -14 -23 -9 0 13 27 36 45 39 8 1
31 16 52 32 97 77 192 102 378 98 106 -2 130 -6 210 -34z m-250 -152 c-110
-16 -194 -52 -264 -114 l-25 -21 17 27 c9 15 17 33 17 40 0 37 121 76 230 76
72 0 73 -1 25 -8z m-25 -39 c-14 -5 -45 -13 -70 -19 -25 -6 -54 -14 -65 -18
-16 -6 -18 -4 -8 6 12 13 109 38 148 38 16 0 15 -1 -5 -7z m-1105 -141 c17 -7
15 -9 -12 -9 -18 -1 -33 4 -33 9 0 12 17 12 45 0z m813 -180 c5 0 12 -6 15
-14 5 -12 21 -14 74 -10 52 3 79 0 113 -15 25 -10 79 -26 120 -36 333 -78 584
-374 735 -867 15 -47 24 -67 21 -45 -4 31 -2 38 9 33 8 -3 15 -1 15 4 0 6 -3
10 -7 10 -5 0 -9 12 -10 27 0 15 -9 33 -18 40 -10 7 -18 25 -19 42 -1 16 -4
27 -8 24 -5 -2 -8 5 -8 16 0 12 -4 21 -10 21 -5 0 -10 5 -10 11 0 5 5 7 10 4
6 -3 10 -4 10 -2 0 7 -23 48 -43 78 -10 15 -17 31 -16 35 6 32 -22 81 -40 70
-4 -3 -8 4 -8 15 -2 17 0 18 13 4 25 -25 26 -17 1 23 -25 39 -39 72 -32 72 9
0 75 -128 109 -211 54 -131 134 -377 156 -476 43 -201 63 -446 34 -419 -9 8
-9 13 0 19 6 5 2 7 -11 4 -13 -3 -23 -1 -23 4 0 5 -4 8 -9 7 -5 -2 -41 21 -80
51 -83 62 -132 75 -233 61 -35 -5 -136 -10 -226 -10 -144 0 -169 -3 -213 -21
-27 -12 -49 -25 -49 -30 0 -5 -7 -9 -16 -9 -12 0 -7 12 20 45 l37 45 -28 -11
c-15 -5 -47 -29 -70 -52 -32 -31 -43 -37 -43 -23 0 9 5 26 11 38 32 59 -51
-12 -88 -76 -11 -18 -12 -15 -13 32 0 55 -16 70 -26 25 -3 -16 -9 -37 -14 -48
l-9 -20 -1 20 c-1 16 -4 14 -15 -10 -11 -25 -14 -27 -20 -12 -4 9 -11 17 -15
17 -11 0 -2 -55 21 -140 10 -36 16 -66 14 -68 -2 -2 -13 24 -26 57 -12 34 -24
61 -27 61 -12 0 12 -89 34 -127 27 -47 39 -55 29 -20 -7 22 -7 22 10 2 11 -14
18 -16 21 -7 3 6 10 10 15 6 5 -3 9 2 9 11 0 13 4 14 20 5 11 -6 20 -8 20 -5
0 4 7 -1 16 -9 14 -14 10 -24 -44 -98 -59 -83 -102 -189 -102 -254 l0 -27 34
38 33 39 41 -18 c30 -13 51 -16 82 -11 46 8 47 2 6 -43 -17 -20 -18 -24 -6
-32 20 -13 114 -23 136 -16 11 4 32 35 49 73 20 44 39 72 60 84 50 31 60 26
57 -30 -5 -64 17 -107 61 -119 41 -11 146 -7 192 8 39 13 75 52 75 82 0 25 24
18 29 -8 2 -10 8 -22 15 -27 17 -11 -17 -33 -88 -55 -97 -31 -130 -34 -236
-21 -91 11 -104 10 -140 -6 -31 -14 -39 -22 -34 -37 5 -16 -1 -18 -46 -18 -62
0 -59 -10 18 -49 164 -82 286 -98 467 -61 53 11 111 20 128 20 30 0 30 0 11
21 l-19 21 35 -6 c26 -5 31 -4 20 3 -10 7 -11 11 -2 11 6 0 20 8 30 18 27 25
59 42 81 42 62 0 175 -284 196 -490 6 -60 5 -63 -9 -45 l-15 20 -1 -20 c0 -16
-2 -17 -10 -5 -6 10 -12 12 -19 5 -7 -7 -6 -39 4 -100 22 -137 49 -458 41
-490 -5 -19 -10 -25 -15 -17 -8 13 -70 18 -151 13 -70 -5 -134 13 -176 48 -21
17 -43 31 -49 31 -5 0 -30 16 -54 35 -24 19 -47 35 -50 35 -4 0 -20 12 -37 28
-17 15 -52 46 -79 70 -26 24 -74 62 -106 84 -33 23 -59 46 -59 50 0 4 -6 8
-14 8 -8 0 -16 4 -18 8 -4 9 -220 190 -265 220 -60 42 -66 29 -23 -53 22 -42
40 -88 40 -102 0 -16 12 -40 28 -58 16 -16 57 -77 92 -135 35 -58 90 -145 122
-194 33 -49 70 -110 84 -135 l24 -46 -23 -8 c-30 -12 -197 -3 -407 22 -207 25
-299 26 -366 6 -66 -20 -113 -19 -166 5 -66 29 -140 34 -257 16 -123 -19 -155
-14 -147 20 8 31 46 93 46 76 0 -7 4 -10 10 -7 12 8 176 35 212 35 16 0 37
-10 50 -24 26 -28 119 -51 164 -41 16 4 57 16 91 26 54 18 62 24 68 51 13 55
-60 118 -104 91 -37 -23 -138 -35 -183 -21 -45 13 -134 90 -124 106 3 5 -17
32 -44 61 -41 43 -55 51 -85 51 -32 0 -38 4 -51 35 -22 55 -17 78 41 191 30
59 55 108 55 109 0 1 -7 2 -15 2 -8 0 -15 -4 -15 -9 0 -5 -4 -7 -9 -4 -5 3
-15 -2 -22 -11 -31 -37 -208 -189 -283 -242 -83 -58 -200 -116 -217 -106 -16
10 -65 -23 -92 -62 -36 -52 -93 -180 -101 -227 -4 -21 -12 -49 -17 -63 l-9
-25 -55 31 c-51 29 -55 30 -55 12 0 -25 21 -71 32 -71 4 0 8 -4 8 -9 0 -17 70
-128 96 -152 l26 -24 -3 82 c-2 45 -1 85 3 88 11 12 54 -18 80 -56 15 -21 32
-39 36 -39 5 0 13 16 18 36 8 35 13 38 77 57 l67 20 23 -20 c12 -11 30 -23 39
-26 11 -4 19 -22 23 -54 15 -112 26 -155 54 -217 16 -36 35 -66 40 -66 6 0 11
-7 11 -15 0 -8 5 -15 10 -15 6 0 10 -6 10 -14 0 -20 13 -27 57 -31 23 -2 31 0
23 5 -15 9 -16 9 36 25 8 3 12 0 9 -5 -3 -6 -2 -10 4 -10 5 0 11 5 13 12 2 6
35 -18 74 -54 38 -36 104 -87 147 -113 42 -25 77 -52 77 -60 0 -12 19 -22 89
-44 58 -19 240 -14 302 8 79 27 109 43 103 52 -5 8 3 11 22 8 4 0 10 4 13 9 3
5 26 18 51 29 75 34 201 135 284 229 83 93 182 184 201 184 7 0 23 -17 36 -37
25 -40 60 -53 84 -33 8 6 21 33 29 58 14 41 22 49 61 65 44 19 46 19 85 -2 51
-26 70 -26 103 -1 41 32 65 26 72 -17 12 -73 15 -81 35 -86 23 -6 80 32 127
86 l31 36 10 -27 c17 -43 35 -265 29 -347 -6 -82 -35 -158 -82 -213 -15 -18
-34 -31 -41 -28 -8 3 -21 -6 -30 -19 -9 -14 -24 -25 -34 -25 -10 0 -25 -7 -34
-15 -16 -17 -30 -20 -21 -6 3 6 -8 6 -27 0 -61 -19 -73 -19 -120 -8 -33 7 -57
8 -76 1 -49 -17 -191 -138 -342 -292 -200 -203 -307 -270 -430 -270 -33 0 -50
5 -54 15 -3 8 -14 15 -24 15 -10 0 -22 4 -28 9 -31 29 -271 151 -310 157 -93
14 -160 -45 -171 -151 -4 -35 -10 -55 -18 -55 -55 0 -239 119 -300 193 -15 18
-116 122 -224 232 -108 110 -217 225 -242 255 -115 139 -217 343 -278 553
-105 363 -121 573 -70 932 24 166 66 299 123 391 48 78 73 99 141 116 27 7 58
21 67 31 23 22 29 21 56 -3 12 -11 28 -20 36 -20 13 0 63 -18 76 -28 3 -2 -6
-12 -20 -22 -21 -16 -22 -20 -7 -20 10 0 29 7 42 16 38 25 29 -1 -12 -35 l-37
-30 37 11 c20 6 40 8 44 5 11 -12 -4 -19 -59 -26 l-53 -6 60 -35 c59 -35 61
-35 175 -34 110 0 118 2 174 32 32 18 68 32 80 32 11 0 28 5 36 10 13 9 13 10
0 11 -8 1 -21 0 -29 -1 -8 -1 -12 4 -8 14 7 17 4 18 -90 36 -35 7 -63 16 -63
21 0 8 -58 23 -145 39 -62 12 -130 37 -144 54 -6 8 -8 21 -5 30 7 17 90 86
104 86 4 0 7 -25 6 -56 -1 -49 2 -58 26 -79 32 -27 106 -45 187 -45 56 0 58 1
79 39 12 21 22 46 22 54 0 29 21 29 52 1 58 -56 57 -92 -1 -95 -14 -1 0 -6 31
-11 32 -6 74 -7 94 -3 35 6 36 8 31 41 -7 42 5 43 33 3 19 -25 22 -40 18 -86
-4 -49 -3 -54 9 -37 52 71 39 197 -33 315 -26 44 -38 76 -40 106 -1 24 -6 49
-12 55 -7 9 -6 19 4 32 8 11 14 29 14 40 0 18 2 19 11 6 8 -11 9 -8 5 15 -3
17 -8 60 -12 98 -3 37 -10 67 -15 67 -5 0 -9 -8 -10 -17 0 -10 -5 -2 -11 17
-5 19 -23 48 -39 64 -31 32 -34 29 -20 -22 5 -17 8 -32 6 -32 -2 0 -17 23 -35
51 -36 59 -50 59 -26 -1 21 -53 20 -62 -3 -27 -22 34 -42 48 -98 70 -30 12
-44 13 -49 5 -4 -6 -3 -8 3 -5 10 6 32 -13 48 -43 5 -9 -2 -7 -16 6 -42 36
-77 44 -182 44 -94 -1 -100 -2 -77 -15 l25 -14 -33 -1 c-18 0 -31 4 -28 9 7
11 -82 2 -106 -11 -10 -5 -18 -14 -18 -21 0 -19 -59 -67 -84 -67 -26 0 -40 -9
-54 -36 -8 -15 -25 -24 -58 -29 -34 -5 -57 -17 -89 -46 -23 -21 -46 -39 -50
-39 -8 0 -2 82 15 210 5 41 8 90 5 110 -2 19 -2 26 2 15 4 -14 16 16 39 90 18
61 39 128 47 150 8 22 17 49 19 60 1 11 6 22 10 25 15 12 79 164 74 177 -4 9
-2 11 6 7 8 -5 9 -2 5 10 -4 9 -3 15 1 12 4 -2 29 37 55 87 84 163 134 248
157 267 3 3 31 37 61 75 59 74 102 112 213 189 57 40 74 47 100 42 29 -5 30
-5 12 9 -23 17 -14 20 15 4 16 -8 25 -7 38 5 40 36 155 88 207 93 36 4 54 10
54 19 0 8 10 14 23 13 21 0 21 -1 2 -8 -14 -6 -3 -10 40 -13 38 -2 67 1 79 8
16 11 11 13 -40 16 l-59 3 73 14 c69 12 77 12 123 -7 27 -12 49 -17 49 -12 0
5 -4 12 -10 15 -5 3 -10 11 -10 16 0 6 13 1 29 -10 16 -12 34 -21 39 -21z
m2007 -221 c136 -162 308 -467 413 -734 55 -139 174 -518 214 -680 19 -80 110
-522 124 -605 18 -109 71 -542 78 -640 3 -41 8 -140 11 -220 l5 -145 -24 130
c-62 337 -80 421 -121 570 -24 88 -62 228 -84 311 -101 375 -219 720 -341 994
-58 130 -130 308 -130 321 0 5 5 7 12 3 6 -4 9 -3 7 2 -3 5 -11 21 -19 36 -7
16 -10 31 -7 35 4 3 9 4 10 2 15 -17 271 -542 298 -608 27 -67 35 -79 37 -58
6 47 -114 414 -213 652 -58 138 -219 458 -280 555 -14 22 -25 44 -25 50 0 5
-4 10 -8 10 -10 0 -58 82 -54 93 1 4 -3 6 -9 5 -6 -2 -17 12 -23 30 -6 18 -15
30 -20 25 -5 -4 -6 -2 -2 5 10 16 56 -26 151 -139z m-959 -41 c96 -147 157
-277 269 -575 37 -97 102 -340 126 -468 60 -320 70 -410 74 -695 l3 -275 -8
255 c-6 192 -15 296 -34 420 -39 246 -54 328 -56 300 -1 -14 -10 20 -20 75
-46 249 -117 465 -243 737 -42 90 -142 259 -204 343 -42 56 -42 58 -7 20 20
-22 65 -84 100 -137z m-146 -184 c0 -2 -5 -6 -12 -10 -6 -4 -8 -3 -5 3 4 6 -2
22 -13 36 -11 14 -20 29 -20 33 0 4 11 -7 25 -26 14 -19 25 -35 25 -36z m488
-9 c-3 -3 -9 2 -12 12 -6 14 -5 15 5 6 7 -7 10 -15 7 -18z m-2708 -499 c-25
-55 -37 -62 -14 -8 9 20 18 43 21 50 3 7 7 11 10 8 2 -2 -5 -25 -17 -50z
m2747 -438 c-3 -7 -5 -2 -5 12 0 14 2 19 5 13 2 -7 2 -19 0 -25z m-3377 -105
c0 -100 -46 -716 -49 -655 -1 42 17 501 25 610 6 82 24 116 24 45z m774 -124
c67 -22 111 -47 146 -84 l24 -26 -24 -22 c-14 -12 -29 -22 -35 -22 -26 -1
-113 -38 -138 -60 -23 -21 -26 -28 -17 -45 10 -18 8 -20 -24 -20 -28 0 -35 -4
-38 -22 -2 -15 -9 -22 -21 -22 -25 2 -21 -11 11 -35 15 -11 21 -21 13 -21 -8
0 -29 11 -48 26 -31 24 -46 21 -21 -4 9 -9 7 -12 -12 -12 -31 0 -16 -15 35
-35 l40 -15 -53 4 c-29 3 -57 8 -62 11 -5 3 -23 49 -41 103 -35 110 -49 202
-30 202 7 0 11 7 9 16 -2 11 9 21 35 30 43 15 71 39 62 54 -10 17 37 29 85 23
25 -3 71 -14 104 -24z m2243 -40 c80 -16 98 -35 97 -106 0 -39 -7 -72 -22
-100 -26 -50 -39 -60 -55 -40 -15 18 -101 42 -118 32 -8 -5 -10 -4 -5 3 4 8
-3 10 -24 7 -16 -2 -30 0 -30 4 0 4 -52 15 -115 25 -136 20 -165 29 -172 56
-3 11 -9 17 -14 14 -5 -3 -6 2 -3 10 3 8 1 24 -5 35 -10 18 -8 21 21 25 122
19 169 28 213 41 52 15 136 13 232 -6z m-1807 -169 c8 -5 12 -11 10 -14 -3 -2
-14 2 -24 10 -22 15 -10 19 14 4z m-16 -146 c18 -7 22 -34 5 -34 -17 0 -49 20
-49 30 0 11 21 13 44 4z m1536 -45 c0 -16 -5 -20 -27 -17 -17 2 -29 10 -31 21
-3 13 3 17 27 17 25 0 31 -4 31 -21z m-2082 -55 c23 -4 42 -9 42 -12 0 -14
-39 -31 -72 -32 -32 0 -37 4 -47 31 -10 29 -9 31 12 26 12 -4 41 -9 65 -13z
m1688 -61 c-3 -3 -13 -3 -22 1 -13 5 -14 9 -3 22 11 14 13 14 22 -1 5 -9 6
-19 3 -22z m-2389 -100 c-3 -10 -5 -2 -5 17 0 19 2 27 5 18 2 -10 2 -26 0 -35z
m994 24 c-10 -9 -11 -8 -5 6 3 10 9 15 12 12 3 -3 0 -11 -7 -18z m56 3 c1 -11
-2 -20 -8 -20 -10 0 -12 23 -2 33 9 9 9 10 10 -13z m1543 -30 c0 -5 -8 -10
-17 -10 -15 0 -16 2 -3 10 19 12 20 12 20 0z m326 -11 c11 -13 27 -19 41 -16
12 2 27 1 33 -3 18 -11 -58 -37 -148 -50 -70 -11 -99 -10 -179 2 -7 1 -13 5
-13 10 0 7 8 9 50 12 8 1 16 9 18 18 5 28 32 30 42 3 13 -35 28 -31 36 10 6
34 7 35 54 35 35 0 52 -5 66 -21z m1931 -11 c-3 -7 -5 -2 -5 12 0 14 2 19 5
13 2 -7 2 -19 0 -25z m-1340 -120 c-2 -18 -4 -6 -4 27 0 33 2 48 4 33 2 -15 2
-42 0 -60z m1363 38 c0 -3 -4 -8 -10 -11 -5 -3 -10 -1 -10 4 0 6 5 11 10 11 6
0 10 -2 10 -4z m7 -198 c-3 -7 -5 -2 -5 12 0 14 2 19 5 13 2 -7 2 -19 0 -25z
m-1152 -183 c40 -275 139 -669 222 -880 60 -154 178 -374 260 -486 110 -148
110 -149 353 -404 66 -69 242 -287 271 -335 27 -45 39 -80 28 -80 -5 0 -72 60
-147 133 -75 73 -159 152 -187 176 -186 163 -359 352 -437 476 -89 142 -175
297 -199 360 -30 76 -61 186 -55 192 1 2 36 -59 76 -134 66 -126 110 -197 110
-179 0 4 -22 58 -49 121 -85 194 -164 467 -221 760 -28 145 -60 359 -60 398 1
59 16 6 35 -118z m-208 93 c-3 -7 -5 -2 -5 12 0 14 2 19 5 13 2 -7 2 -19 0
-25z m1383 -24 c0 -8 -4 -12 -10 -9 -5 3 -10 10 -10 16 0 5 5 9 10 9 6 0 10
-7 10 -16z m-1393 -46 c-3 -8 -6 -5 -6 6 -1 11 2 17 5 13 3 -3 4 -12 1 -19z
m377 -498 l5 -45 -13 52 c-7 28 -16 73 -19 100 l-6 48 14 -55 c8 -30 17 -75
19 -100z m-4210 -87 c-4 -16 -18 -53 -31 -83 -45 -100 -93 -242 -93 -272 0
-16 -4 -27 -8 -24 -10 6 13 152 28 178 6 10 10 26 10 37 0 10 14 45 31 77 18
33 38 71 46 87 8 15 16 27 19 27 2 0 1 -12 -2 -27z m4235 -18 l0 -20 -9 20
c-5 11 -9 27 -9 35 -1 13 0 13 9 0 5 -8 9 -24 9 -35z m-2313 -268 l23 -28 7
26 c3 14 7 25 9 25 11 0 143 -43 158 -51 13 -7 22 -6 33 5 17 17 105 46 141
46 13 0 26 -6 29 -14 5 -12 11 -11 37 5 40 24 68 24 98 0 23 -18 24 -18 50 1
32 24 60 21 74 -9 l11 -22 35 25 c47 33 69 24 69 -28 l0 -39 33 30 c40 39 54
39 62 1 13 -58 -53 -126 -88 -91 -16 16 -23 14 -35 -14 -14 -31 -31 -32 -67
-3 l-28 22 -23 -29 c-22 -27 -25 -28 -61 -17 -33 10 -40 9 -60 -10 -17 -16
-30 -19 -57 -15 -27 4 -37 1 -48 -14 -15 -22 -70 -26 -220 -18 -72 4 -92 9
-111 27 -15 14 -30 19 -45 15 -18 -4 -31 3 -60 35 -30 33 -42 39 -64 35 -23
-4 -29 -1 -38 22 -14 38 -12 53 5 31 8 -11 15 -16 15 -12 0 4 8 0 18 -10 16
-17 17 -15 20 44 3 59 4 62 28 60 15 -2 37 -15 50 -31z m2411 11 c-3 -8 -6 -5
-6 6 -1 11 2 17 5 13 3 -3 4 -12 1 -19z m63 -153 c0 -5 -5 -3 -10 5 -5 8 -10
20 -10 25 0 6 5 3 10 -5 5 -8 10 -19 10 -25z m-2530 -120 c22 -14 44 -25 50
-25 22 0 8 -22 -22 -36 -18 -8 -40 -20 -49 -26 -20 -14 -59 8 -85 47 -15 24
-15 26 7 45 32 26 52 25 99 -5z m635 -75 c4 -6 -13 -19 -37 -30 -52 -24 -148
-28 -148 -6 0 18 24 28 90 36 84 11 88 11 95 0z m2134 -145 c109 -159 161
-237 161 -241 0 -16 -30 20 -88 109 -37 55 -79 119 -94 141 -15 23 -28 45 -28
50 0 12 2 10 49 -59z m521 -273 c45 -194 87 -312 137 -388 37 -58 101 -129
109 -122 2 3 -14 43 -36 89 -35 74 -81 245 -60 223 5 -5 26 -51 48 -102 85
-198 192 -331 322 -402 l65 -35 -50 -6 c-107 -15 -138 -11 -194 25 -112 70
-234 248 -306 446 -24 69 -64 274 -78 410 -8 77 -3 59 43 -138z m-4665 -54
c-21 -208 -39 -307 -80 -439 -19 -62 -32 -116 -29 -120 16 -27 -139 -339 -230
-459 -71 -95 -177 -201 -183 -183 -3 7 -30 -5 -71 -31 -141 -91 -274 -138
-430 -151 -211 -19 -425 101 -417 233 2 45 4 47 83 103 l43 31 40 -26 39 -26
-72 -70 c-39 -39 -74 -67 -77 -63 -7 10 -51 35 -51 29 0 -32 82 -112 150 -146
43 -22 49 -22 160 -12 132 12 223 41 243 77 6 12 35 41 62 62 218 172 334 504
281 803 -8 41 -12 77 -10 79 8 9 63 -52 80 -88 19 -40 25 -167 13 -259 -5 -32
-23 -98 -42 -147 -41 -109 -49 -130 -46 -130 1 0 -13 -24 -30 -52 -62 -107 10
-32 90 92 59 91 121 245 135 337 4 23 15 56 25 73 9 16 22 55 29 85 16 70 27
91 45 84 9 -4 17 6 24 33 5 21 23 92 40 157 30 118 36 134 46 124 8 -7 -32
-285 -56 -390 -20 -91 -24 -148 -12 -148 53 0 161 349 209 675 15 102 15 11
-1 -137z m4378 -3 c32 -41 57 -80 55 -85 -2 -6 -31 28 -65 75 -35 47 -59 85
-55 85 4 -1 33 -34 65 -75z m107 -152 c-1 -10 -39 39 -40 51 0 5 9 -3 20 -17
11 -14 20 -29 20 -34z m-5119 -71 c8 -4 28 -17 44 -30 23 -18 28 -29 27 -62
-3 -74 -91 -218 -190 -313 -58 -55 -149 -106 -215 -121 -43 -10 -30 14 24 44
62 34 124 85 151 123 l23 32 -50 -38 c-197 -148 -339 -172 -520 -86 -92 43
-191 176 -183 246 4 40 21 35 30 -11 13 -60 38 -94 101 -136 151 -102 327 -83
494 53 73 58 166 175 202 255 24 52 32 57 62 44z m5017 -242 c6 0 12 4 14 10
2 5 70 -27 151 -71 186 -101 341 -168 406 -176 82 -9 59 -23 -39 -23 -123 0
-203 21 -347 92 -101 49 -137 72 -203 135 -44 41 -80 79 -80 84 0 4 20 -5 44
-21 24 -17 48 -30 54 -30z m-4363 -36 c-50 -242 -173 -483 -339 -663 -67 -72
-255 -230 -343 -288 -121 -80 -120 -86 7 -53 115 30 125 33 130 40 3 4 32 20
65 35 143 65 166 78 212 123 27 26 68 70 92 97 34 41 40 44 29 20 -21 -52 -94
-148 -165 -217 -94 -93 -266 -204 -476 -309 -98 -49 -190 -98 -204 -109 l-26
-20 24 0 c13 0 67 9 119 20 161 33 159 24 -6 -33 -148 -52 -409 -163 -486
-208 -56 -33 -113 -73 -175 -122 -30 -22 -9 7 43 64 31 33 53 63 50 66 -3 3
-11 1 -18 -4 -7 -5 -22 -13 -32 -17 -18 -6 -19 -5 -4 11 8 10 19 24 23 32 10
18 -10 7 -42 -22 -29 -26 -29 -14 -2 24 36 51 3 31 -55 -33 -31 -34 -56 -58
-56 -54 0 24 79 167 114 204 l41 45 -42 -22 c-23 -11 -65 -41 -93 -66 -57 -50
-64 -54 -55 -25 7 23 2 25 -26 9 -19 -10 -20 -9 -5 19 21 41 129 139 216 196
134 89 232 128 430 172 95 21 181 64 331 165 217 147 366 301 536 554 51 76
126 241 165 362 17 52 32 92 35 90 2 -3 -4 -40 -12 -83z m1369 15 c75 -44 96
-62 157 -142 39 -50 79 -108 90 -128 16 -32 17 -39 4 -49 -8 -7 -15 -18 -15
-24 0 -6 -20 -18 -45 -27 l-46 -17 -23 42 c-12 22 -42 75 -66 116 -44 76 -150
272 -150 277 0 7 13 0 94 -48z m4339 -219 c6 -50 -8 -82 -65 -137 -112 -110
-302 -132 -475 -57 l-38 16 30 9 c18 5 53 5 90 -2 203 -37 345 15 410 149 17
34 33 62 36 62 4 0 9 -18 12 -40z m-2293 -337 c68 -171 140 -265 264 -347 45
-30 91 -57 104 -61 13 -4 21 -9 19 -11 -7 -7 -139 31 -175 50 -110 57 -209
209 -256 391 -17 67 -46 270 -45 313 0 15 13 -37 29 -115 16 -78 43 -177 60
-220z m1885 322 c-113 -70 -331 -129 -388 -105 -12 5 -59 16 -104 25 -139 26
-129 30 80 31 195 1 205 2 277 28 140 52 200 61 135 21z m-3333 -248 c51 -35
101 -66 112 -70 16 -7 12 -14 -36 -65 -30 -31 -65 -70 -78 -87 -14 -16 -61
-66 -105 -110 -45 -44 -94 -98 -111 -120 -16 -22 -37 -47 -46 -56 -24 -22 -23
-25 12 -39 69 -29 256 17 455 110 87 41 145 58 145 42 0 -12 -105 -138 -254
-305 -181 -203 -677 -663 -1260 -1167 -436 -377 -692 -618 -859 -810 -56 -64
-119 -137 -140 -161 -22 -24 -35 -37 -29 -29 5 8 39 72 74 141 121 235 228
368 587 731 174 176 200 215 136 211 -16 -1 -41 -11 -55 -21 -30 -22 -165
-172 -368 -407 -81 -93 -153 -176 -160 -183 -7 -8 -25 -30 -40 -50 -15 -21
-29 -39 -33 -42 -3 -3 -29 -36 -58 -75 -61 -80 -69 -87 -95 -79 -14 5 -16 3
-11 -7 6 -11 5 -11 -4 -3 -28 25 62 405 146 614 86 218 360 755 630 1239 34
62 63 116 63 120 0 4 14 26 32 50 35 48 39 49 143 11 45 -17 76 -21 126 -18
59 3 83 12 264 103 227 114 335 186 435 292 56 58 69 78 65 96 -7 28 69 139
122 180 57 43 88 37 195 -36z m-1778 -24 c-79 -199 -198 -361 -359 -489 -88
-71 -123 -90 -60 -33 229 207 275 265 380 477 33 66 61 119 63 117 2 -2 -9
-34 -24 -72z m3687 10 c28 -29 52 -53 53 -53 2 0 7 17 11 38 7 36 8 36 17 12
13 -33 4 -176 -17 -270 -16 -67 -48 -150 -60 -150 -2 0 -16 11 -30 24 -24 22
-25 28 -16 63 l10 38 -24 -30 c-14 -16 -25 -28 -25 -25 -1 3 -3 96 -5 207 -4
197 -3 202 16 200 11 -1 43 -25 70 -54z m-5376 -35 c2 -7 6 -61 8 -119 6 -162
45 -232 187 -340 38 -29 68 -54 67 -56 -2 -1 -27 4 -56 12 -113 30 -202 129
-220 244 l-7 46 -16 -35 c-8 -19 -22 -41 -31 -49 -15 -12 -17 -11 -17 7 0 12
-4 23 -9 26 -5 4 -7 -4 -5 -16 l5 -23 -11 23 c-11 26 14 88 55 132 35 38 37
155 3 134 -7 -4 -8 -2 -4 5 6 9 11 9 22 0 8 -6 18 -9 21 -5 4 4 1 11 -7 16
-11 7 -11 10 -2 10 7 0 15 -6 17 -12z m5555 -112 c0 -48 -18 -155 -37 -219
-30 -105 -112 -137 -201 -80 -23 15 -40 28 -38 30 2 2 27 -8 57 -22 66 -30 70
-31 96 -2 28 30 49 96 68 214 20 122 21 124 40 117 9 -4 15 -18 15 -38z
m-5157 -2 c29 -15 54 -28 56 -30 3 -3 -15 -23 -40 -45 l-44 -40 -22 28 c-12
15 -26 33 -31 38 -8 9 14 75 25 75 2 0 27 -12 56 -26z m5297 -18 c0 -52 -27
-182 -55 -266 -27 -81 -79 -180 -95 -180 -14 0 -15 -3 40 132 30 76 58 166 71
236 22 110 39 145 39 78z m182 -32 c34 -18 42 -48 35 -127 l-5 -62 15 65 c21
95 19 92 55 87 32 -4 33 -5 30 -43 -8 -111 -74 -267 -148 -352 -39 -45 -88
-82 -109 -82 -13 0 -2 25 29 63 18 23 41 58 51 77 l17 35 -43 -42 c-51 -48
-119 -86 -148 -81 -18 3 -17 8 19 61 50 73 86 190 102 325 l12 103 30 -7 c17
-3 43 -13 58 -20z m-711 -59 c7 -13 3 -12 -10 5 -11 14 -21 30 -21 35 0 11 14
-7 31 -40z m1028 -327 c-35 -69 -74 -113 -146 -162 -154 -105 -396 -105 -604
-1 -72 37 -176 126 -165 143 10 17 70 20 99 5 28 -14 29 -14 22 6 -3 12 -3 21
2 21 4 0 17 3 28 6 14 3 33 -7 63 -35 55 -52 148 -103 235 -131 91 -29 220
-25 286 9 45 23 191 164 191 184 0 5 3 8 6 5 3 -3 -5 -26 -17 -50z m-4435 20
c-19 -32 -89 -109 -113 -124 -21 -14 -20 -10 10 22 20 22 51 56 70 76 35 39
45 47 33 26z m5142 -28 c8 0 14 -7 14 -16 0 -13 -8 -14 -47 -8 -27 3 -52 9
-58 13 -12 7 44 20 63 15 8 -2 20 -4 28 -4z m-6868 -26 c70 -9 66 -24 -7 -24
-38 0 -86 -9 -133 -26 -40 -14 -125 -42 -188 -63 -63 -21 -132 -49 -153 -61
-60 -35 -56 -15 8 44 123 114 270 154 473 130z m1559 -110 c-3 -3 -12 -4 -19
-1 -8 3 -5 6 6 6 11 1 17 -2 13 -5z m-40 -41 c-3 -3 -11 -2 -17 2 -8 5 -7 11
2 22 12 15 13 14 16 -1 2 -10 1 -20 -1 -23z m-22 -2 c20 -33 -210 -128 -410
-171 -424 -90 -593 -146 -566 -189 8 -12 30 -8 138 21 70 20 142 39 158 43 29
6 29 6 10 -9 -11 -9 -55 -29 -99 -46 -43 -17 -90 -39 -103 -47 -23 -15 -23
-18 -9 -29 14 -10 3 -18 -71 -54 -49 -23 -110 -50 -136 -61 -26 -10 -67 -29
-90 -41 -139 -71 -170 -19 -48 79 63 50 61 66 -3 39 -20 -8 -36 -11 -36 -6 0
17 145 119 211 148 85 39 386 125 524 151 166 32 243 51 323 83 73 29 158 72
177 89 12 12 22 11 30 0z m3253 -133 c-10 -49 -278 -401 -366 -480 -113 -102
-360 -240 -498 -280 -99 -28 -273 -30 -344 -5 -25 9 -34 15 -20 12 72 -15 213
-17 271 -5 119 25 344 165 419 260 18 22 35 38 40 35 4 -3 10 4 13 15 3 13 11
18 20 14 10 -3 42 19 89 63 40 38 89 81 108 97 64 51 161 150 213 219 29 37
53 67 54 67 2 0 2 -6 1 -12z m1487 -82 c-21 -31 -109 -91 -160 -109 -53 -19
-156 -32 -135 -18 13 10 13 11 0 11 -8 1 2 7 23 15 22 7 49 22 60 33 12 11 44
22 71 26 27 3 72 19 100 35 28 17 52 30 54 30 1 1 -5 -10 -13 -23z m-1472
-191 c-46 -58 -218 -221 -285 -271 -80 -58 -132 -85 -174 -89 -33 -2 -33 -2
-16 21 9 13 20 24 24 24 5 0 25 16 45 35 20 19 40 35 44 35 3 0 17 9 30 21 13
12 51 40 84 62 33 22 92 67 132 99 39 32 78 58 86 58 7 0 22 9 32 20 29 33 28
23 -2 -15z m-3913 -25 c-14 -4 -34 -8 -45 -8 -16 0 -15 2 5 8 14 4 34 8 45 8
16 0 15 -2 -5 -8z m3931 -99 c-70 -98 -305 -279 -416 -321 -40 -15 -39 -15
185 153 107 80 206 157 219 171 32 34 37 33 12 -3z m209 25 c0 -2 -8 -10 -17
-17 -16 -13 -17 -12 -4 4 13 16 21 21 21 13z m-80 -60 c0 -2 -8 -10 -17 -17
-16 -13 -17 -12 -4 4 13 16 21 21 21 13z m-90 -83 c-16 -24 -157 -127 -270
-196 -131 -80 -330 -174 -330 -155 0 6 -5 6 -14 -1 -10 -9 -15 -8 -20 4 -3 9
0 15 9 15 8 0 15 4 15 9 0 5 14 14 31 20 41 14 260 134 329 181 30 20 91 56
135 80 44 23 89 49 99 56 25 17 31 12 16 -13z m146 -165 c-8 -13 -38 -64 -66
-115 -50 -90 -100 -248 -100 -314 0 -15 -4 -31 -10 -34 -5 -3 -10 -16 -10 -28
l0 -21 -15 21 c-13 18 -14 36 -6 105 12 103 32 170 79 267 43 87 90 141 122
141 21 0 22 -1 6 -22z m-261 -117 c-30 -60 -55 -114 -55 -120 0 -6 -5 -10 -12
-8 -7 1 -24 -31 -40 -78 -15 -44 -30 -84 -33 -90 -11 -23 8 103 21 134 17 40
12 50 -11 27 -29 -28 -36 -6 -13 37 23 42 175 207 190 207 5 0 -16 -49 -47
-109z m857 -35 c35 -48 61 -103 55 -119 -2 -7 -18 15 -35 48 -17 33 -41 71
-54 85 -13 14 -32 37 -43 50 l-20 24 33 -23 c19 -13 47 -42 64 -65z m-111 -13
c13 -16 12 -17 -3 -4 -10 7 -18 15 -18 17 0 8 8 3 21 -13z m89 -433 c-49 -97
-163 -188 -287 -229 -86 -29 -206 -29 -274 0 -27 12 -49 25 -49 30 0 4 -9 11
-20 14 -11 3 -20 11 -20 16 0 5 21 -2 47 -17 62 -37 133 -45 243 -29 146 22
288 112 350 222 30 55 38 48 10 -7z"/>
<path d="M5059 9573 c-13 -15 -12 -15 9 -4 23 12 28 21 13 21 -5 0 -15 -7 -22
-17z"/>
<path d="M6591 7994 c0 -11 3 -14 6 -6 3 7 2 16 -1 19 -3 4 -6 -2 -5 -13z"/>
<path d="M6112 7980 c0 -14 2 -19 5 -12 2 6 2 18 0 25 -3 6 -5 1 -5 -13z"/>
<path d="M5262 6197 c-26 -73 -42 -83 -139 -91 -78 -6 -147 -19 -208 -41 -15
-5 -16 -4 -6 3 8 6 11 17 7 27 -8 23 -64 13 -87 -15 -9 -10 -19 -16 -22 -13
-4 3 -18 -2 -31 -11 -34 -22 -42 -21 -111 14 -33 16 -63 30 -67 30 -28 1 19
-109 70 -163 32 -34 84 -35 91 -2 6 33 53 85 95 107 l41 20 -42 -40 c-24 -22
-43 -47 -43 -57 0 -20 7 -19 95 19 93 40 177 32 133 -12 -13 -13 3 -17 47 -12
88 8 210 170 193 255 -2 12 -7 6 -16 -18z"/>
<path d="M2950 4180 c0 -5 5 -10 10 -10 6 0 10 5 10 10 0 6 -4 10 -10 10 -5 0
-10 -4 -10 -10z"/>
<path d="M2660 3234 c-35 -14 -114 -36 -175 -49 -153 -32 -262 -77 -300 -122
l-30 -36 50 7 c117 17 216 50 350 116 190 94 245 138 105 84z"/>
<path d="M4523 9847 c-23 -5 -44 -16 -47 -23 -4 -11 1 -11 27 0 18 8 43 19 57
24 31 13 18 13 -37 -1z"/>
<path d="M4408 9793 c6 -2 18 -2 25 0 6 3 1 5 -13 5 -14 0 -19 -2 -12 -5z"/>
<path d="M4225 9717 c-90 -48 -165 -96 -243 -154 -71 -54 -252 -222 -252 -234
0 -9 114 85 196 162 60 57 146 117 274 193 126 75 127 76 114 76 -5 0 -45 -20
-89 -43z"/>
<path d="M7270 8802 c0 -7 12 -31 26 -54 15 -23 37 -62 50 -87 13 -25 24 -40
24 -33 0 8 -16 41 -37 75 -20 34 -42 73 -49 87 -8 14 -14 19 -14 12z"/>
<path d="M7390 8580 c6 -11 13 -20 16 -20 2 0 0 9 -6 20 -6 11 -13 20 -16 20
-2 0 0 -9 6 -20z"/>
<path d="M7445 8458 c4 -13 11 -27 16 -33 5 -5 4 5 -2 23 -12 36 -24 44 -14
10z"/>
<path d="M7475 8380 c3 -5 8 -10 11 -10 2 0 4 5 4 10 0 6 -5 10 -11 10 -5 0
-7 -4 -4 -10z"/>
<path d="M7680 7751 c0 -6 4 -13 10 -16 6 -3 7 1 4 9 -7 18 -14 21 -14 7z"/>
<path d="M2921 7714 c0 -11 3 -14 6 -6 3 7 2 16 -1 19 -3 4 -6 -2 -5 -13z"/>
<path d="M2851 7424 c0 -11 3 -14 6 -6 3 7 2 16 -1 19 -3 4 -6 -2 -5 -13z"/>
<path d="M7781 7354 c0 -11 3 -14 6 -6 3 7 2 16 -1 19 -3 4 -6 -2 -5 -13z"/>
<path d="M2825 7310 c-4 -23 -5 -43 -2 -46 2 -3 7 14 11 37 4 23 5 44 2 46 -2
2 -7 -14 -11 -37z"/>
<path d="M2811 7234 c0 -11 3 -14 6 -6 3 7 2 16 -1 19 -3 4 -6 -2 -5 -13z"/>
<path d="M7801 7233 c-1 -14 5 -23 14 -23 8 0 15 8 15 18 0 14 -2 14 -9 3 -7
-11 -10 -10 -14 5 -4 16 -5 16 -6 -3z"/>
<path d="M2801 7184 c0 -11 3 -14 6 -6 3 7 2 16 -1 19 -3 4 -6 -2 -5 -13z"/>
<path d="M7822 7180 c0 -14 2 -19 5 -12 2 6 2 18 0 25 -3 6 -5 1 -5 -13z"/>
<path d="M2792 7140 c0 -14 2 -19 5 -12 2 6 2 18 0 25 -3 6 -5 1 -5 -13z"/>
<path d="M2932 7125 c0 -16 2 -22 5 -12 2 9 2 23 0 30 -3 6 -5 -1 -5 -18z"/>
<path d="M7830 7120 c-12 -8 -12 -10 -1 -10 9 0 11 -8 7 -27 -5 -23 -4 -25 5
-10 15 26 8 59 -11 47z"/>
<path d="M2781 7094 c0 -11 3 -14 6 -6 3 7 2 16 -1 19 -3 4 -6 -2 -5 -13z"/>
<path d="M2911 7013 c-34 -204 -58 -302 -116 -473 -35 -102 -66 -194 -70 -205
-21 -63 34 57 71 154 70 184 86 250 131 559 10 74 -3 45 -16 -35z"/>
<path d="M2713 6834 c-6 -27 -10 -51 -8 -52 6 -6 27 78 23 90 -2 6 -9 -11 -15
-38z"/>
</g>
</svg>
