<svg xmlns="http://www.w3.org/2000/svg" width="1200" height="630" viewBox="0 0 1200 630">
  <defs>
    <linearGradient id="accent" x1="0" y1="0" x2="1" y2="1">
      <stop offset="0" stop-color="#f470df" />
      <stop offset="0.52" stop-color="#e5b76f" />
      <stop offset="1" stop-color="#a897ef" />
    </linearGradient>
    <pattern id="grid" width="48" height="48" patternUnits="userSpaceOnUse">
      <path d="M 48 0 L 0 0 0 48" fill="none" stroke="#695960" stroke-width="1" opacity="0.24" />
    </pattern>
  </defs>

  <rect width="1200" height="630" rx="36" fill="#190a0f" />
  <rect width="1200" height="630" rx="36" fill="url(#grid)" />
  <circle cx="1058" cy="114" r="250" fill="#771a4f" opacity="0.62" />
  <circle cx="1090" cy="590" r="180" fill="#303f6f" opacity="0.64" />

  <g fill="none" stroke="url(#accent)" stroke-width="14" stroke-linecap="round">
    <path d="M760 458 C820 326 920 326 980 458" />
    <path d="M880 458 C940 326 1040 326 1100 458" />
  </g>

  <rect x="72" y="72" width="238" height="44" rx="22" fill="#291f26" stroke="#ef80bf" />
  <text x="191" y="101" text-anchor="middle" fill="#ffcfdf" font-family="Arial, sans-serif" font-size="18" font-weight="700" letter-spacing="3">MONIQUE OLIVEIRA</text>

  <text x="72" y="292" fill="#d3cfcf" font-family="Arial, sans-serif" font-size="104" font-weight="700" letter-spacing="-4">monique</text>
  <text x="470" y="292" fill="#f470df" font-family="Arial, sans-serif" font-size="104" font-weight="700" letter-spacing="-4">.dev</text>

  <line x1="72" y1="348" x2="662" y2="348" stroke="url(#accent)" stroke-width="6" />
  <text x="72" y="408" fill="#bf9cdf" font-family="Arial, sans-serif" font-size="30" font-weight="600">desenvolvimento / ferramentas / tecnologia</text>
  <text x="72" y="520" fill="#808898" font-family="Arial, sans-serif" font-size="23">artigos práticos, projetos e bastidores técnicos</text>
</svg>
